<svg width="373" height="345" viewBox="0 0 373 345" fill="none" xmlns="http://www.w3.org/2000/svg">
<path d="M298 240.5C294.8 234.9 295.333 228.167 296 225.5C269.6 228.7 230.333 224.833 214 222.5C234.5 212.5 245 213.5 266.5 211C288 208.5 296.355 205.713 319 194C333.5 186.5 342.333 166 342.5 157.5L339 154.5L253 196.5L119 167.5L34.5 244L48.5 288.5C56 296 68.5 306 76.5 311.5C78.3491 310.021 99.4298 278.939 106.553 255.948C108.752 264.005 112.297 272.787 118 279.5C118 279.5 125 242 150 219.5C139.2 235.1 136.833 258.333 137 268C153.5 243 172.5 232 179.5 225.5C185.1 220.3 187.833 221.333 188.5 222.5C181.7 227.3 174.333 245.167 171.5 253.5C176 248.5 220 231 221.5 233.5C222.7 235.5 211.333 250 205.5 257C218 252.5 245.5 251.5 266.5 250.5C283.3 249.7 294.5 243.5 298 240.5Z" fill="#C0C0C0"/>
<path d="M97 22.5001C111 24.3262 117.333 41.1667 119.5 50.5C114.5 43.6667 102.7 29.7 95.5 28.5C88.3 27.3 79 33.0334 72 33.5001C79.5 31.5001 85.5 21.0001 97 22.5001Z" fill="#D9D9D9"/>
<path d="M72 33.5C72.5 35 73.8252 36.6301 76 37.5C78.5 38.5 82.5085 38.3754 85.9938 38.049C82.9958 38.866 78.4286 50.5 80 61.5C82.1406 76.4843 99.3333 78.8333 107.5 77C105 81 101.72 89.805 82.5 85C64.5 80.5 69 39.5 72 33.5Z" fill="#C0C0C0"/>
<path d="M367.5 167.5V145.5C363.333 150.333 354.8 160.4 354 162C353 164 352.5 182 352.5 186C352.5 189.2 356.5 192 358.5 193C363.3 189 366.5 174.333 367.5 167.5Z" fill="#C0C0C0"/>
<path d="M323.5 203.5C321.5 205.1 314.333 208.333 311 209.5C311 209.5 310 225 308 229.5C306 234 315.5 231.167 316.5 230.5C321.027 227.482 323 211 323.5 203.5Z" fill="white"/>
<path d="M337 191C334 196 331 199 326.5 202C326.5 202 324.5 221 322.5 225.5C320.5 230 328 227.167 329 226.5C333.527 223.482 336.5 198.5 337 191Z" fill="white"/>
<path d="M98.5 13.4995C104.981 12.2653 131.5 24.8328 144 31.4995C145.333 31.8328 148.3 32.2995 149.5 31.4995C150.699 30.6989 145.333 24.8327 142.5 21.9995C147.7 20.3996 159.667 23.3329 165 24.9995L163.5 21.9995L192 23.9995V19.9995C199.667 20.8328 219.7 22.7995 238.5 23.9995C262 25.4995 278.5 32.4995 300.5 39.9995C322.499 47.4993 331.5 59.999 334.5 62.4995C337.5 64.9995 359 95.499 365 103.5C369.8 109.899 372 116.166 372.5 118.5C359.833 118 332.7 117.3 325.5 118.5C318.3 119.7 310.5 118 307.5 117C312 120.999 315 127.5 319 135C322.2 140.999 334.667 150.833 340.5 155C338.5 172.199 310.333 186.499 296.5 191.5L228.5 215C229 214.166 230.4 211.399 232 207C233.6 202.6 231.333 202.166 230 202.5C217 210.166 191 224.5 191 220.5C191.001 216.499 202 202.166 207.5 195.5C190.167 208.666 154.9 233.4 152.5 227C150.101 220.599 167.167 198.999 176 189C154.167 203 109.4 229.9 105 225.5C100.601 221.099 113.167 202.333 120 193.5C80.4002 209.099 57.1668 263.999 48.5 288.5L47.9639 287.909C28.8886 266.878 22.8524 260.223 7 230.5C7.04988 230.42 15.0171 217.704 19.5 210C25.3832 199.888 33.2356 184.471 35.417 180.157C33.8551 182.826 31.5928 183.94 31.5 183.5C29.9011 175.899 53.1669 145.999 65 132L50.5 140C50.9009 135.598 63.3336 112.832 69.5 102C75.1 101.599 91.1667 90.1662 98.5 84.9995C96 85.4995 89.4 86.1995 83 84.9995C75.0001 83.4994 70.5 71.9995 69.5 60.9995C68.7278 52.5041 69.9972 42.2035 71.5723 35.2017C71.9098 36.8158 73.8735 38.7163 77 39.0005C81.4 39.4005 82.8333 38.6672 84 38.5005C80.3334 43.5005 75.6001 55.8006 80 65.0005C85.4999 76.5003 88 74.5005 90 74.5005C92 74.5005 110.5 60.0005 117.5 58.5005C120.266 57.9079 124.667 56.8338 126 56.5005C122.333 54.1671 116.4 47.9004 114 41.5005C111 33.5006 99.4999 27.5005 91 28.5005C84.2 29.3005 75 33.0005 72 33.5005C71.9887 33.5117 71.9786 33.5241 71.9678 33.5356C72.3101 32.1735 72.6596 30.9781 73 29.9995C77.0001 18.4999 88.0001 15.4995 98.5 13.4995ZM200.679 69.0005C188.931 69.0005 178.946 76.7686 177.184 92.3052C175.136 110.359 190.693 118 198.916 118C205.377 118 220.042 113.394 221.823 97.0854C223.585 80.9515 211.838 69.0007 200.679 69.0005Z" fill="white"/>
<ellipse cx="6" cy="5.5" rx="6" ry="5.5" transform="matrix(-1 0 0 1 198 75)" fill="white"/>
</svg>
